{
	"asset":{
		"generator":"Khronos glTF Blender I/O v4.4.56",
		"version":"2.0"
	},
	"scene":0,
	"scenes":[
		{
			"name":"Scene",
			"nodes":[
				0,
				1
			]
		}
	],
	"nodes":[
		{
			"camera":0,
			"name":"Camera",
			"rotation":[
				-0.32916492223739624,
				-0.00037438064464367926,
				-0.0001305057667195797,
				0.9442723989486694
			],
			"translation":[
				19.76871109008789,
				50.70186996459961,
				20.61850357055664
			]
		},
		{
			"mesh":0,
			"name":"dungeon",
			"rotation":[
				0.7071068286895752,
				0,
				0,
				0.7071068286895752
			]
		}
	],
	"cameras":[
		{
			"name":"Camera",
			"perspective":{
				"aspectRatio":1.7777777777777777,
				"yfov":1.3053572177886963,
				"zfar":100,
				"znear":0.10000000149011612
			},
			"type":"perspective"
		}
	],
	"meshes":[
		{
			"name":"dungeon",
			"primitives":[
				{
					"attributes":{
						"POSITION":0,
						"NORMAL":1
					},
					"indices":2
				}
			]
		}
	],
	"accessors":[
		{
			"bufferView":0,
			"componentType":5126,
			"count":24465,
			"max":[
				49.305145263671875,
				8.891200065612793,
				0.0027058611158281565
			],
			"min":[
				-25.015216827392578,
				-90.04127502441406,
				-40.17658615112305
			],
			"type":"VEC3"
		},
		{
			"bufferView":1,
			"componentType":5126,
			"count":24465,
			"type":"VEC3"
		},
		{
			"bufferView":2,
			"componentType":5123,
			"count":30399,
			"type":"SCALAR"
		}
	],
	"bufferViews":[
		{
			"buffer":0,
			"byteLength":293580,
			"byteOffset":0,
			"target":34962
		},
		{
			"buffer":0,
			"byteLength":293580,
			"byteOffset":293580,
			"target":34962
		},
		{
			"buffer":0,
			"byteLength":60798,
			"byteOffset":587160,
			"target":34963
		}
	],
	"buffers":[
		{
			"byteLength":647960,
			"uri":"dungeon.bin"
		}
	]
}
